<svg xmlns="http://www.w3.org/2000/svg" xmlns:xlink="http://www.w3.org/1999/xlink" xmlns:lucid="lucid" width="2195.3" height="2414.55"><g transform="translate(0 0)" lucid:page-tab-id="Y4GqplY9EZqp"><path d="M1123.17 168.16c80.52 0 145.8 26.7 145.8 59.6 0 32.93-65.28 59.62-145.8 59.62H685.8c-80.53 0-145.8-26.7-145.8-59.6 0-32.93 65.27-59.62 145.8-59.62z" stroke="#000" stroke-opacity="0" fill="#b2d6ef"/><use xlink:href="#a" transform="matrix(1,0,0,1,544.8,172.9626045925941) translate(31.327160493827204 47.71111111111111)"/><use xlink:href="#b" transform="matrix(1,0,0,1,544.8,172.9626045925941) translate(104.47530864197535 47.71111111111111)"/><use xlink:href="#c" transform="matrix(1,0,0,1,544.8,172.9626045925941) translate(205.15432098765433 47.71111111111111)"/><use xlink:href="#d" transform="matrix(1,0,0,1,544.8,172.9626045925941) translate(414.9691358024691 47.71111111111111)"/><use xlink:href="#e" transform="matrix(1,0,0,1,544.8,172.9626045925941) translate(581.7592592592592 47.71111111111111)"/><use xlink:href="#f" transform="matrix(1,0,0,1,544.8,172.9626045925941) translate(219.32098765432096 74.37777777777778)"/><use xlink:href="#g" transform="matrix(1,0,0,1,544.8,172.9626045925941) translate(301.91358024691357 74.37777777777778)"/><use xlink:href="#h" transform="matrix(1,0,0,1,544.8,172.9626045925941) translate(338.45679012345676 74.37777777777778)"/><use xlink:href="#i" transform="matrix(1,0,0,1,544.8,172.9626045925941) translate(374.25925925925924 74.37777777777778)"/><path d="M683.07 328c0-4.42 3.58-8 8-8h464.25c4.42 0 8 3.58 8 8v64c0 4.42-3.58 8-8 8H691.07c-4.42 0-8-3.58-8-8z" stroke="#000" stroke-opacity="0" fill="#4247a8"/><use xlink:href="#j" transform="matrix(1,0,0,1,687.8650643568106,324.8) translate(122.91666666666667 40.21111111111111)"/><use xlink:href="#k" transform="matrix(1,0,0,1,687.8650643568106,324.8) translate(138.429012345679 40.21111111111111)"/><use xlink:href="#l" transform="matrix(1,0,0,1,687.8650643568106,324.8) translate(209.1635802469136 40.21111111111111)"/><use xlink:href="#m" transform="matrix(1,0,0,1,687.8650643568106,324.8) translate(257.5154320987655 40.21111111111111)"/><path d="M742.17 620c49.55 0 89.7 22.4 89.7 50s-40.15 50-89.7 50H473.03c-49.54 0-89.7-22.4-89.7-50s40.16-50 89.7-50z" stroke="#000" stroke-opacity="0" fill="#636aff"/><use xlink:href="#n" transform="matrix(1,0,0,1,388.1214262392612,624.8) translate(32.38888888888884 52.43333333333334)"/><use xlink:href="#o" transform="matrix(1,0,0,1,388.1214262392612,624.8) translate(94.537037037037 52.43333333333334)"/><use xlink:href="#p" transform="matrix(1,0,0,1,388.1214262392612,624.8) translate(121.12962962962959 52.43333333333334)"/><use xlink:href="#q" transform="matrix(1,0,0,1,388.1214262392612,624.8) translate(165.57407407407405 52.43333333333334)"/><use xlink:href="#r" transform="matrix(1,0,0,1,388.1214262392612,624.8) translate(242.53703703703704 52.43333333333334)"/><use xlink:href="#s" transform="matrix(1,0,0,1,388.1214262392612,624.8) translate(337.1296296296297 52.43333333333334)"/><path d="M905.68 427.36c4.22-1.3 11.06-1.3 15.3 0l234.7 72.43c4.22 1.3 4.22 3.4 0 4.7l-234.7 72.43c-4.24 1.3-11.08 1.3-15.3 0l-234.7-72.43c-4.24-1.3-4.24-3.4 0-4.7z" stroke="#5358d3" stroke-width="4" fill="#d2d3d5"/><use xlink:href="#t" transform="matrix(1,0,0,1,668.1214262392612,429.8) translate(218.320987654321 67.87777777777778)"/><use xlink:href="#u" transform="matrix(1,0,0,1,668.1214262392612,429.8) translate(214.4320987654321 86.54444444444445)"/><path d="M883.32 645.75c0-4.4 3.58-8 8-8h544c4.42 0 8 3.6 8 8v70.9c0 4.43-3.58 8-8 8h-544c-4.42 0-8-3.57-8-8z" stroke="#000" stroke-opacity="0" fill="#636aff"/><use xlink:href="#v" transform="matrix(1,0,0,1,888.1214262392612,642.5540111097591) translate(46.68518518518515 29.933333333333334)"/><use xlink:href="#w" transform="matrix(1,0,0,1,888.1214262392612,642.5540111097591) translate(99.94444444444441 29.933333333333334)"/><use xlink:href="#x" transform="matrix(1,0,0,1,888.1214262392612,642.5540111097591) translate(166.537037037037 29.933333333333334)"/><use xlink:href="#y" transform="matrix(1,0,0,1,888.1214262392612,642.5540111097591) translate(216.9074074074074 29.933333333333334)"/><use xlink:href="#z" transform="matrix(1,0,0,1,888.1214262392612,642.5540111097591) translate(267.27777777777777 29.933333333333334)"/><use xlink:href="#A" transform="matrix(1,0,0,1,888.1214262392612,642.5540111097591) translate(370.3148148148148 29.933333333333334)"/><use xlink:href="#B" transform="matrix(1,0,0,1,888.1214262392612,642.5540111097591) translate(400.83333333333337 29.933333333333334)"/><use xlink:href="#C" transform="matrix(1,0,0,1,888.1214262392612,642.5540111097591) translate(464.46296296296293 29.933333333333334)"/><use xlink:href="#D" transform="matrix(1,0,0,1,888.1214262392612,642.5540111097591) translate(228.90740740740736 61.93333333333334)"/><path d="M39.66 1182.12c0-4.42 3.58-8 8-8h297.4c4.42 0 8 3.58 8 8v144.73c0 4.42-3.58 8-8 8H47.66c-4.42 0-8-3.58-8-8z" stroke="#000" stroke-opacity="0" fill="#b4b7ff"/><use xlink:href="#E" transform="matrix(1,0,0,1,44.45839953178783,1178.923137850322) translate(18.611111111111125 65.15555555555555)"/><use xlink:href="#F" transform="matrix(1,0,0,1,44.45839953178783,1178.923137850322) translate(180.04320987654322 65.15555555555555)"/><use xlink:href="#G" transform="matrix(1,0,0,1,44.45839953178783,1178.923137850322) translate(44.191358024691354 102.48888888888888)"/><use xlink:href="#H" transform="matrix(1,0,0,1,44.45839953178783,1178.923137850322) translate(179.35185185185185 102.48888888888888)"/><path d="M45.55 1528c0-4.42 3.6-8 8-8h398.97c4.4 0 8 3.58 8 8v100.3c0 4.43-3.6 8-8 8H53.55c-4.4 0-8-3.57-8-8z" fill="#f9d2de"/><path d="M87.05 1520h-33.5c-4.4 0-8 3.58-8 8v100.3c0 4.43 3.6 8 8 8h33.5" stroke="#b4b7ff" stroke-width="4" fill="none"/><use xlink:href="#I" transform="matrix(1,0,0,1,71.48967616384552,1520) translate(20.555555555555557 49.611111111111114)"/><use xlink:href="#J" transform="matrix(1,0,0,1,71.48967616384552,1520) translate(48.88888888888889 49.611111111111114)"/><use xlink:href="#K" transform="matrix(1,0,0,1,71.48967616384552,1520) translate(132.77777777777777 49.611111111111114)"/><use xlink:href="#L" transform="matrix(1,0,0,1,71.48967616384552,1520) translate(157.46913580246914 49.611111111111114)"/><use xlink:href="#M" transform="matrix(1,0,0,1,71.48967616384552,1520) translate(225.30864197530866 49.611111111111114)"/><use xlink:href="#N" transform="matrix(1,0,0,1,71.48967616384552,1520) translate(305.4938271604938 49.611111111111114)"/><use xlink:href="#O" transform="matrix(1,0,0,1,71.48967616384552,1520) translate(335.12345679012344 49.611111111111114)"/><use xlink:href="#I" transform="matrix(1,0,0,1,71.48967616384552,1520) translate(20.555555555555557 76.27777777777777)"/><use xlink:href="#P" transform="matrix(1,0,0,1,71.48967616384552,1520) translate(48.88888888888889 76.27777777777777)"/><use xlink:href="#Q" transform="matrix(1,0,0,1,71.48967616384552,1520) translate(137.71604938271602 76.27777777777777)"/><path d="M923.2 400v9.5c0 1.52-1.24 2.75-2.76 2.75h-2.75M923.2 400l.65-2.93" stroke="#666" fill="none"/><path d="M913.86 422.98l.43-15 8.72 3.12z" stroke="#666" fill="#666"/><path d="M747.13 600.4H611.2l-2.2.9-.94 2.27-.92-.38 1.1-2.67 2.75-1.14h136.13zm166.7-12.47l-.43 3.2-1.24 3-2 2.6-2.6 2-3 1.24-3.2.42H773.8v-1h127.5l3-.4 2.76-1.14 2.4-1.84 1.82-2.4 1.15-2.74.4-3.02v-8.08h1z" fill="#666"/><path d="M913.82 579.78h-1v-3h1zM607.6 618.38l-4.63-14.26h9.27z" fill="#666"/><path d="M607.6 620l-5.32-16.38h10.65zm-3.94-15.38l3.94 12.14 3.95-12.14z" fill="#666"/><use xlink:href="#R" transform="matrix(1,0,0,1,747.1288950575716,591.8924775867915) translate(0.005000000000000782 10.666666666666668)"/><path d="M1151.35 608.27l3.22.42 3 1.23 2.6 2 2 2.6 1.23 3 .42 3.2v.4h-1v-.33l-.4-3-1.14-2.77-1.83-2.4-2.4-1.82-2.74-1.14-3-.4h-103v-1zm-237.13-8.52l1.14 2.76 1.83 2.4 2.38 1.83 2.76 1.14 3 .4h103v1H925.3l-3.22-.42-3-1.24-2.6-2-2-2.6-1.24-3-.42-3.2v-17.02h1v16.96zM913.82 579.78h-1v-3h1zM1163.32 636.14l-4.63-14.27h9.26z" fill="#666"/><path d="M1163.32 637.75l-5.32-16.38h10.64zm-3.95-15.38l3.95 12.15 3.95-12.15z" fill="#666"/><use xlink:href="#S" transform="matrix(1,0,0,1,1028.3399447577797,600.7694831416711) translate(0.005000000000000782 10.666666666666668)"/><path d="M607.6 720v40.5c0 6.63 5.38 12 12 12h460.22c6.63 0 12 5.37 12 12v23.88M607.6 720v-3" stroke="#666" fill="none"/><path d="M1091.82 823.38l-4.64-14.26h9.28z" stroke="#666" fill="#666"/><path d="M319.66 822.5v163.8c0 6.64-5.37 12-12 12h-99.3c-6.63 0-12 5.38-12 12v147.2" stroke="#c92d39" fill="none"/><path d="M196.36 1172.5l-4.64-14.26H201z" stroke="#c92d39" fill="#c92d39"/><path d="M353.06 1239.66c3.83 0 6.94-3.1 6.94-6.95V931.35c0-6.63-5.37-12-12-12H32c-6.63 0-12 5.37-12 12v634.94c0 6.63 5.37 12 12 12h11.55M353.06 1239.66l-1.96 2.27M43.55 1578.28h3" stroke="#b4b7ff" stroke-width="4" fill="none"/><path d="M1040.4 1254.5h28c6.62 0 12 5.36 12 12v16c0 6.62-5.38 12-12 12H723.13c-6.62 0-12-5.38-12-12v-16c0-6.64 5.38-12 12-12h11.4M1040.4 1254.5h-3" stroke="#666" fill="none"/><path d="M749.52 1254.5l-14.27 4.62v-9.27z" stroke="#666" fill="#666"/><path d="M904.48 287.38v7.1c0 5.1 4.12 9.2 9.2 9.2h9.2M904.48 287.38v-3" stroke="#666" fill="none"/><path d="M923.16 318.38l-4.9-14.17 9.27-.17z" stroke="#666" fill="#666"/><path d="M20 68.58c0-6.62 5.37-12 12-12h707.13c6.63 0 12 5.38 12 12v56.32c0 6.62-5.37 12-12 12H32c-6.63 0-12-5.38-12-12z" stroke="#000" stroke-opacity="0" fill="#636aff"/><use xlink:href="#T" transform="matrix(1,0,0,1,24.999192756430432,61.58314381582047) translate(101.22222222222217 40.833333333333336)"/><use xlink:href="#U" transform="matrix(1,0,0,1,24.999192756430432,61.58314381582047) translate(127.81481481481477 40.833333333333336)"/><use xlink:href="#V" transform="matrix(1,0,0,1,24.999192756430432,61.58314381582047) translate(260.9259259259259 40.833333333333336)"/><use xlink:href="#W" transform="matrix(1,0,0,1,24.999192756430432,61.58314381582047) translate(371.81481481481484 40.833333333333336)"/><use xlink:href="#X" transform="matrix(1,0,0,1,24.999192756430432,61.58314381582047) translate(488.70370370370375 40.833333333333336)"/><path d="M0-8c0-6.63 5.37-12 12-12h722.85c6.63 0 12 5.37 12 12v67.8c0 6.63-5.37 12-12 12H12c-6.63 0-12-5.37-12-12z" stroke="#000" stroke-opacity="0" fill="#f9d2de"/><use xlink:href="#Y" transform="matrix(1,0,0,1,5.000000000000114,-14.999999999999986) translate(325.37654320987656 44.111111111111114)"/><path d="M48.82 117.36h684.2M48.82 117.36h-3M733 117.36h3M373.43 71.8V108c0 6.63 5.37 12 12 12h626.1c6.62 0 12 5.38 12 12v19.56M373.43 71.8v-3" stroke="#666" fill="none"/><path d="M1023.52 166.54l-4.63-14.26h9.26z" stroke="#666" fill="#666"/><path d="M25.66 855.66c-3.13-3.13-3.13-8.2 0-11.32l38.68-38.68c3.13-3.13 5.66-2.08 5.66 2.34v9c0 4.42 3.58 8 8 8h1704c4.42 0 8-3.58 8-8v-9c0-4.42 2.53-5.47 5.66-2.34l38.68 38.68c3.13 3.13 3.13 8.2 0 11.32l-38.68 38.68c-3.13 3.13-5.66 2.08-5.66-2.34v-9c0-4.42-3.58-8-8-8H78c-4.42 0-8 3.58-8 8v9c0 4.42-2.53 5.47-5.66 2.34z" stroke="#000" stroke-opacity="0" fill="#1a9d6e"/><g><use xlink:href="#Z" transform="matrix(1,0,0,1,25,805) translate(857.3333333333334 54.599999999999994)"/></g><path d="M1011.47 1164.94c15.98 0 28.93 40.1 28.93 89.55 0 49.44-12.95 89.54-28.93 89.54h-231.4c-16 0-28.94-40.1-28.94-89.55 0-49.47 12.95-89.56 28.93-89.56z" stroke="#000" stroke-opacity="0" fill="#4247a8"/><path d="M1011.47 1344.04c-15.98 0-28.93-40.1-28.93-89.55 0-49.47 12.95-89.56 28.93-89.56" stroke="#000" stroke-opacity="0" fill="none"/><g><use xlink:href="#aa" transform="matrix(1,0,0,1,756.1332828661214,1169.938999812411) translate(47.74074074074075 92.82222222222222)"/></g><g><path d="M368.44 1250.77c-3.13-3.1-3.15-8.18-.03-11.3l25.64-25.77c3.1-3.13 5.65-2.1 5.66 2.33v2.5c.02 4.42 3.6 8 8.03 7.98l308.28-.77c4.43 0 8-3.6 8-8.02l-.02-2.5c0-4.4 2.52-5.46 5.65-2.35l25.76 25.63c3.12 3.12 3.14 8.18.02 11.32l-25.63 25.75c-3.13 3.14-5.66 2.1-5.67-2.32v-2.5c-.02-4.43-3.6-8-8.03-8l-308.28.8c-4.42 0-8 3.6-7.98 8v2.52c.02 4.4-2.5 5.47-5.64 2.35z" stroke="#000" stroke-opacity="0" fill="#b4b7ff"/></g><path d="M1703.66 1155.75c15.97 0 28.92 40.1 28.92 89.55 0 49.46-12.95 89.55-28.92 89.55h-231.4c-16 0-28.94-40.1-28.94-89.55 0-49.45 12.95-89.55 28.93-89.55z" stroke="#000" stroke-opacity="0" fill="#4247a8"/><path d="M1703.66 1334.85c-15.98 0-28.93-40.1-28.93-89.55 0-49.45 12.95-89.55 28.93-89.55" stroke="#000" stroke-opacity="0" fill="none"/><g><use xlink:href="#ab" transform="matrix(1,0,0,1,1448.3214262392612,1160.7548617745003) translate(50.93827160493828 92.82222222222222)"/></g><g><path d="M1049.5 1256.5c-3.13-3.13-3.14-8.2-.02-11.33l26.94-27.07c3.1-3.14 5.65-2.1 5.66 2.33v3.16c.02 4.4 3.6 7.98 8.03 7.97l308.16-.78c4.42-.02 8-3.62 7.98-8.03v-3.16c0-4.4 2.52-5.47 5.65-2.35l27.06 26.94c3.13 3.1 3.15 8.17.03 11.3l-26.95 27.08c-3.1 3.13-5.65 2.08-5.66-2.33l-.02-3.16c0-4.43-3.6-8-8.02-8l-308.16.8c-4.4 0-8 3.6-7.98 8v3.17c.02 4.4-2.5 5.47-5.64 2.35z" stroke="#000" stroke-opacity="0" fill="#b4b7ff"/></g><path d="M1007.52 1597.83v-114.9c0-6.62-5.37-12-12-12h-87.76c-6.62 0-12-5.37-12-12v-114.9M1007.52 1597.83v3M895.76 1344.04v-3" stroke="#b4b7ff" stroke-width="4" fill="none"/><path d="M409.77 2013.43c-2.08-3.9-2.08-10.2 0-14.1l63.8-119.52c2.07-3.9 7.34-7.05 11.76-7.05h126.65c4.4 0 9.68 3.16 11.76 7.06l63.8 119.52c2.07 3.9 2.07 10.22 0 14.1l-63.8 119.52c-2.08 3.9-7.35 7.06-11.76 7.06H485.33c-4.42 0-9.7-3.16-11.77-7.06z" stroke="#000" stroke-opacity="0" fill="#1a9d6e"/><g><use xlink:href="#ac" transform="matrix(1,0,0,1,411.00002581323963,1877.754137084687) translate(69.51851851851852 135.93333333333334)"/></g><path d="M809.15 1603.17c-3.3-2.95-2.38-5.34 2.04-5.34h392.66c4.4 0 5.33 2.4 2.04 5.34l-192.42 172.46c-3.3 2.94-8.63 2.94-11.92 0z" stroke="#000" stroke-opacity="0" fill="#1a9d6e"/><g><use xlink:href="#ad" transform="matrix(1,0,0,1,808.1882613080758,1602.8311175311644) translate(109.74691358024694 93.04444444444445)"/><use xlink:href="#ae" transform="matrix(1,0,0,1,808.1882613080758,1602.8311175311644) translate(136.90740740740742 93.04444444444445)"/><use xlink:href="#af" transform="matrix(1,0,0,1,808.1882613080758,1602.8311175311644) translate(260.05555555555554 93.04444444444445)"/></g><path d="M753.4 852.45v28c0 6.63 5.37 12 12 12h51.76c2.3 0 4.18-1.87 4.18-4.18 0-2.3-1.87-4.18-4.18-4.18h-223.5c-6.63 0-12 5.36-12 12v57.3c0 4.48 3.63 8.1 8.1 8.1 4.5 0 8.12 3.64 8.12 8.12v199.7c0 6.63 5.37 12 12 12h136.9M753.4 852.45v-3" stroke="#c92d39" fill="none"/><path d="M761.78 1181.33l-14.26 4.63v-9.27z" stroke="#c92d39" fill="#c92d39"/><path d="M1001.37 875H1508c6.63 0 12 5.37 12 12v61c0 6.63-5.37 12-12 12h-333.74c-6.63 0-12 5.37-12 12v261.3c0 6.63 5.37 12 12 12h252.44M1001.37 875h-3" stroke="#c92d39" fill="none"/><path d="M1441.7 1245.3l-14.26 4.64v-9.27z" stroke="#c92d39" fill="#c92d39"/><path d="M1458.47 1990.2c-2.08-3.9-2.08-10.23 0-14.12l63.8-119.5c2.07-3.9 7.34-7.07 11.75-7.07h126.65c4.42 0 9.7 3.17 11.77 7.07l63.8 119.5c2.07 3.9 2.07 10.22 0 14.12l-63.8 119.5c-2.08 3.9-7.35 7.06-11.77 7.06h-126.65c-4.4 0-9.68-3.16-11.76-7.06z" stroke="#000" stroke-opacity="0" fill="#1a9d6e"/><g><use xlink:href="#ag" transform="matrix(1,0,0,1,1459.6997979677842,1854.511786388381) translate(50.11111111111113 136.82222222222222)"/></g><path d="M1456.98 1983.13h-231.5c-6.62 0-12-5.37-12-12v-193.7c0-6.62-5.36-12-12-12H1022c-6.63 0-12 5.38-12 12v39.1c0 .7-.55 1.25-1.24 1.25-.68 0-1.24-.55-1.24-1.24v-38.76M1456.98 1983.13h3M1007.52 1777.78v-3M655.64 1939.57h163.94c6.63 0 12-5.38 12-12V1826.6c0-6.6 5.37-12 12-12h163.94M655.64 1939.57h-3" stroke="#b4b7ff" stroke-width="4" fill="none"/><path d="M1480 1544.15c0-4.42 3.58-8 8-8h398.96c4.42 0 8 3.58 8 8v100.3c0 4.43-3.58 8-8 8H1488c-4.42 0-8-3.57-8-8z" fill="#f9d2de"/><path d="M1521.5 1536.15H1488c-4.42 0-8 3.58-8 8v100.3c0 4.43 3.58 8 8 8h33.5" stroke="#b4b7ff" stroke-width="4" fill="none"/><g><use xlink:href="#ah" transform="matrix(1,0,0,1,1505.9350891830165,1536.148384492491) translate(0 36.27777777777778)"/><use xlink:href="#ai" transform="matrix(1,0,0,1,1505.9350891830165,1536.148384492491) translate(14.814814814814813 36.27777777777778)"/><use xlink:href="#N" transform="matrix(1,0,0,1,1505.9350891830165,1536.148384492491) translate(98.7037037037037 36.27777777777778)"/><use xlink:href="#aj" transform="matrix(1,0,0,1,1505.9350891830165,1536.148384492491) translate(128.33333333333331 36.27777777777778)"/><use xlink:href="#K" transform="matrix(1,0,0,1,1505.9350891830165,1536.148384492491) translate(176.358024691358 36.27777777777778)"/><use xlink:href="#ak" transform="matrix(1,0,0,1,1505.9350891830165,1536.148384492491) translate(201.04938271604937 36.27777777777778)"/><use xlink:href="#al" transform="matrix(1,0,0,1,1505.9350891830165,1536.148384492491) translate(276.2345679012345 36.27777777777778)"/><use xlink:href="#am" transform="matrix(1,0,0,1,1505.9350891830165,1536.148384492491) translate(319.4444444444444 36.27777777777778)"/><use xlink:href="#an" transform="matrix(1,0,0,1,1505.9350891830165,1536.148384492491) translate(0 62.94444444444445)"/><use xlink:href="#ao" transform="matrix(1,0,0,1,1505.9350891830165,1536.148384492491) translate(0 89.61111111111111)"/><use xlink:href="#ap" transform="matrix(1,0,0,1,1505.9350891830165,1536.148384492491) translate(91.29629629629629 89.61111111111111)"/><use xlink:href="#aq" transform="matrix(1,0,0,1,1505.9350891830165,1536.148384492491) translate(157.96296296296293 89.61111111111111)"/><use xlink:href="#ar" transform="matrix(1,0,0,1,1505.9350891830165,1536.148384492491) translate(225.67901234567898 89.61111111111111)"/></g><path d="M1587.95 1334.85v28c0 6.63 5.38 12 12 12h154.72c1.34 0 2.42-1.08 2.42-2.42 0-1.34-1.1-2.43-2.43-2.43H1389.1c-6.64 0-12 5.37-12 12v200.43c0 6.63 5.36 12 12 12h88.9M1587.95 1334.85v-3M1478 1594.43h3" stroke="#b4b7ff" stroke-width="4" fill="none"/><path d="M972.16 1344.04v28c0 6.62-5.37 12-12 12h-93.02c-1.68 0-3.04 1.36-3.04 3.04 0 1.7 1.36 3.05 3.04 3.05h307.68c4.62 0 8.37-3.74 8.37-8.36 0-4.62 3.73-8.37 8.35-8.37H1368c6.63 0 12 5.37 12 12v196.9c0 6.63 5.37 12 12 12h86M972.16 1344.04v-3M1478 1594.3h3" stroke="#b4b7ff" stroke-width="4" fill="none"/><defs><path d="M127-220V0H93v-220H8v-28h204v28h-85" id="as"/><path d="M84 4C-5 8 30-112 23-190h32v120c0 31 7 50 39 49 72-2 45-101 50-169h31l1 190h-30c-1-10 1-25-2-33-11 22-28 36-60 37" id="at"/><path d="M114-163C36-179 61-72 57 0H25l-1-190h30c1 12-1 29 2 39 6-27 23-49 58-41v29" id="au"/><path d="M143 0L79-87 56-68V0H24v-261h32v163l83-92h37l-77 82L181 0h-38" id="av"/><path d="M100-194c63 0 86 42 84 106H49c0 40 14 67 53 68 26 1 43-12 49-29l28 8c-11 28-37 45-77 45C44 4 14-33 15-96c1-61 26-98 85-98zm52 81c6-60-76-77-97-28-3 7-6 17-6 28h103" id="aw"/><path d="M179-190L93 31C79 59 56 82 12 73V49c39 6 53-20 64-50L1-190h34L92-34l54-156h33" id="ax"/><g id="a"><use transform="matrix(0.06172839506172839,0,0,0.06172839506172839,0,0)" xlink:href="#as"/><use transform="matrix(0.06172839506172839,0,0,0.06172839506172839,12.716049382716047,0)" xlink:href="#at"/><use transform="matrix(0.06172839506172839,0,0,0.06172839506172839,25.061728395061728,0)" xlink:href="#au"/><use transform="matrix(0.06172839506172839,0,0,0.06172839506172839,32.407407407407405,0)" xlink:href="#av"/><use transform="matrix(0.06172839506172839,0,0,0.06172839506172839,43.51851851851852,0)" xlink:href="#aw"/><use transform="matrix(0.06172839506172839,0,0,0.06172839506172839,55.864197530864196,0)" xlink:href="#ax"/></g><path d="M30 0v-248h187v28H63v79h144v27H63v87h162V0H30" id="ay"/><path d="M195 0l-74-108L45 0H8l94-129-87-119h37l69 98 67-98h37l-84 118L233 0h-38" id="az"/><path d="M30-248c87 1 191-15 191 75 0 78-77 80-158 76V0H30v-248zm33 125c57 0 124 11 124-50 0-59-68-47-124-48v98" id="aA"/><path d="M140-251c81 0 123 46 123 126C263-46 219 4 140 4 59 4 17-45 17-125s42-126 123-126zm0 227c63 0 89-41 89-101s-29-99-89-99c-61 0-89 39-89 99S79-25 140-24" id="aB"/><path d="M233-177c-1 41-23 64-60 70L243 0h-38l-65-103H63V0H30v-248c88 3 205-21 203 71zM63-129c60-2 137 13 137-47 0-61-80-42-137-45v92" id="aC"/><path d="M68-38c1 34 0 65-14 84H32c9-13 17-26 17-46H33v-38h35" id="aD"/><g id="b"><use transform="matrix(0.06172839506172839,0,0,0.06172839506172839,0,0)" xlink:href="#ay"/><use transform="matrix(0.06172839506172839,0,0,0.06172839506172839,14.814814814814813,0)" xlink:href="#az"/><use transform="matrix(0.06172839506172839,0,0,0.06172839506172839,29.629629629629626,0)" xlink:href="#aA"/><use transform="matrix(0.06172839506172839,0,0,0.06172839506172839,44.44444444444444,0)" xlink:href="#aB"/><use transform="matrix(0.06172839506172839,0,0,0.06172839506172839,61.72839506172839,0)" xlink:href="#aC"/><use transform="matrix(0.06172839506172839,0,0,0.06172839506172839,77.28395061728395,0)" xlink:href="#as"/><use transform="matrix(0.06172839506172839,0,0,0.06172839506172839,88.33333333333333,0)" xlink:href="#aD"/></g><path d="M33 0v-248h34V0H33" id="aE"/><path d="M240 0l2-218c-23 76-54 145-80 218h-23L58-218 59 0H30v-248h44l77 211c21-75 51-140 76-211h43V0h-30" id="aF"/><path d="M190 0L58-211 59 0H30v-248h39L202-35l-2-213h31V0h-41" id="aG"/><path d="M63-220v92h138v28H63V0H30v-248h175v28H63" id="aH"/><path d="M30 0v-248h33v221h125V0H30" id="aI"/><path d="M205 0l-28-72H64L36 0H1l101-248h38L239 0h-34zm-38-99l-47-123c-12 45-31 82-46 123h93" id="aJ"/><g id="c"><use transform="matrix(0.06172839506172839,0,0,0.06172839506172839,0,0)" xlink:href="#aE"/><use transform="matrix(0.06172839506172839,0,0,0.06172839506172839,6.172839506172839,0)" xlink:href="#aF"/><use transform="matrix(0.06172839506172839,0,0,0.06172839506172839,24.629629629629626,0)" xlink:href="#aA"/><use transform="matrix(0.06172839506172839,0,0,0.06172839506172839,39.44444444444444,0)" xlink:href="#aB"/><use transform="matrix(0.06172839506172839,0,0,0.06172839506172839,56.72839506172839,0)" xlink:href="#aC"/><use transform="matrix(0.06172839506172839,0,0,0.06172839506172839,72.28395061728395,0)" xlink:href="#as"/><use transform="matrix(0.06172839506172839,0,0,0.06172839506172839,83.33333333333333,0)" xlink:href="#aD"/><use transform="matrix(0.06172839506172839,0,0,0.06172839506172839,89.50617283950616,0)" xlink:href="#aE"/><use transform="matrix(0.06172839506172839,0,0,0.06172839506172839,95.679012345679,0)" xlink:href="#aG"/><use transform="matrix(0.06172839506172839,0,0,0.06172839506172839,111.66666666666666,0)" xlink:href="#aH"/><use transform="matrix(0.06172839506172839,0,0,0.06172839506172839,125.18518518518518,0)" xlink:href="#aI"/><use transform="matrix(0.06172839506172839,0,0,0.06172839506172839,137.53086419753086,0)" xlink:href="#aJ"/><use transform="matrix(0.06172839506172839,0,0,0.06172839506172839,150.679012345679,0)" xlink:href="#as"/><use transform="matrix(0.06172839506172839,0,0,0.06172839506172839,164.19753086419752,0)" xlink:href="#aE"/><use transform="matrix(0.06172839506172839,0,0,0.06172839506172839,170.37037037037035,0)" xlink:href="#aB"/><use transform="matrix(0.06172839506172839,0,0,0.06172839506172839,187.6543209876543,0)" xlink:href="#aG"/></g><path d="M185-189c-5-48-123-54-124 2 14 75 158 14 163 119 3 78-121 87-175 55-17-10-28-26-33-46l33-7c5 56 141 63 141-1 0-78-155-14-162-118-5-82 145-84 179-34 5 7 8 16 11 25" id="aK"/><path d="M197 0v-115H63V0H30v-248h33v105h134v-105h34V0h-34" id="aL"/><g id="d"><use transform="matrix(0.06172839506172839,0,0,0.06172839506172839,0,0)" xlink:href="#aC"/><use transform="matrix(0.06172839506172839,0,0,0.06172839506172839,15.987654320987653,0)" xlink:href="#ay"/><use transform="matrix(0.06172839506172839,0,0,0.06172839506172839,30.80246913580247,0)" xlink:href="#aI"/><use transform="matrix(0.06172839506172839,0,0,0.06172839506172839,43.148148148148145,0)" xlink:href="#aJ"/><use transform="matrix(0.06172839506172839,0,0,0.06172839506172839,56.29629629629629,0)" xlink:href="#as"/><use transform="matrix(0.06172839506172839,0,0,0.06172839506172839,69.81481481481481,0)" xlink:href="#aE"/><use transform="matrix(0.06172839506172839,0,0,0.06172839506172839,75.98765432098764,0)" xlink:href="#aB"/><use transform="matrix(0.06172839506172839,0,0,0.06172839506172839,93.2716049382716,0)" xlink:href="#aG"/><use transform="matrix(0.06172839506172839,0,0,0.06172839506172839,109.25925925925925,0)" xlink:href="#aK"/><use transform="matrix(0.06172839506172839,0,0,0.06172839506172839,124.07407407407406,0)" xlink:href="#aL"/><use transform="matrix(0.06172839506172839,0,0,0.06172839506172839,140.06172839506172,0)" xlink:href="#aE"/><use transform="matrix(0.06172839506172839,0,0,0.06172839506172839,146.23456790123456,0)" xlink:href="#aA"/></g><path d="M137-103V0h-34v-103L8-248h37l75 118 75-118h37" id="aM"/><g id="e"><use transform="matrix(0.06172839506172839,0,0,0.06172839506172839,0,0)" xlink:href="#aJ"/><use transform="matrix(0.06172839506172839,0,0,0.06172839506172839,14.814814814814813,0)" xlink:href="#aG"/><use transform="matrix(0.06172839506172839,0,0,0.06172839506172839,30.80246913580247,0)" xlink:href="#aJ"/><use transform="matrix(0.06172839506172839,0,0,0.06172839506172839,45.61728395061728,0)" xlink:href="#aI"/><use transform="matrix(0.06172839506172839,0,0,0.06172839506172839,56.29629629629629,0)" xlink:href="#aM"/><use transform="matrix(0.06172839506172839,0,0,0.06172839506172839,71.1111111111111,0)" xlink:href="#aK"/><use transform="matrix(0.06172839506172839,0,0,0.06172839506172839,85.92592592592591,0)" xlink:href="#aE"/><use transform="matrix(0.06172839506172839,0,0,0.06172839506172839,92.09876543209874,0)" xlink:href="#aK"/></g><path d="M30-248c118-7 216 8 213 122C240-48 200 0 122 0H30v-248zM63-27c89 8 146-16 146-99s-60-101-146-95v194" id="aN"/><g id="f"><use transform="matrix(0.06172839506172839,0,0,0.06172839506172839,0,0)" xlink:href="#aG"/><use transform="matrix(0.06172839506172839,0,0,0.06172839506172839,15.987654320987653,0)" xlink:href="#ay"/><use transform="matrix(0.06172839506172839,0,0,0.06172839506172839,30.80246913580247,0)" xlink:href="#ay"/><use transform="matrix(0.06172839506172839,0,0,0.06172839506172839,45.61728395061728,0)" xlink:href="#aN"/><use transform="matrix(0.06172839506172839,0,0,0.06172839506172839,61.60493827160493,0)" xlink:href="#aK"/></g><g id="g"><use transform="matrix(0.06172839506172839,0,0,0.06172839506172839,0,0)" xlink:href="#as"/><use transform="matrix(0.06172839506172839,0,0,0.06172839506172839,13.08641975308642,0)" xlink:href="#aB"/></g><path d="M160-131c35 5 61 23 61 61C221 17 115-2 30 0v-248c76 3 177-17 177 60 0 33-19 50-47 57zm-97-11c50-1 110 9 110-42 0-47-63-36-110-37v79zm0 115c55-2 124 14 124-45 0-56-70-42-124-44v89" id="aO"/><g id="h"><use transform="matrix(0.06172839506172839,0,0,0.06172839506172839,0,0)" xlink:href="#aO"/><use transform="matrix(0.06172839506172839,0,0,0.06172839506172839,14.814814814814813,0)" xlink:href="#ay"/></g><path d="M212-179c-10-28-35-45-73-45-59 0-87 40-87 99 0 60 29 101 89 101 43 0 62-24 78-52l27 14C228-24 195 4 139 4 59 4 22-46 18-125c-6-104 99-153 187-111 19 9 31 26 39 46" id="aP"/><g id="i"><use transform="matrix(0.06172839506172839,0,0,0.06172839506172839,0,0)" xlink:href="#aN"/><use transform="matrix(0.06172839506172839,0,0,0.06172839506172839,15.987654320987653,0)" xlink:href="#ay"/><use transform="matrix(0.06172839506172839,0,0,0.06172839506172839,30.80246913580247,0)" xlink:href="#aN"/><use transform="matrix(0.06172839506172839,0,0,0.06172839506172839,46.79012345679012,0)" xlink:href="#aE"/><use transform="matrix(0.06172839506172839,0,0,0.06172839506172839,52.96296296296296,0)" xlink:href="#aP"/><use transform="matrix(0.06172839506172839,0,0,0.06172839506172839,68.95061728395062,0)" xlink:href="#aJ"/><use transform="matrix(0.06172839506172839,0,0,0.06172839506172839,82.09876543209876,0)" xlink:href="#as"/><use transform="matrix(0.06172839506172839,0,0,0.06172839506172839,95.61728395061728,0)" xlink:href="#ay"/><use transform="matrix(0.06172839506172839,0,0,0.06172839506172839,110.43209876543209,0)" xlink:href="#aN"/></g><path fill="#fff" d="M233-177c-1 41-23 64-60 70L243 0h-38l-65-103H63V0H30v-248c88 3 205-21 203 71zM63-129c60-2 137 13 137-47 0-61-80-42-137-45v92" id="aQ"/><use transform="matrix(0.04320987654320988,0,0,0.04320987654320988,0,0)" xlink:href="#aQ" id="j"/><path fill="#fff" d="M212-179c-10-28-35-45-73-45-59 0-87 40-87 99 0 60 29 101 89 101 43 0 62-24 78-52l27 14C228-24 195 4 139 4 59 4 22-46 18-125c-6-104 99-153 187-111 19 9 31 26 39 46" id="aR"/><path fill="#fff" d="M140-251c81 0 123 46 123 126C263-46 219 4 140 4 59 4 17-45 17-125s42-126 123-126zm0 227c63 0 89-41 89-101s-29-99-89-99c-61 0-89 39-89 99S79-25 140-24" id="aS"/><path fill="#fff" d="M30-248c118-7 216 8 213 122C240-48 200 0 122 0H30v-248zM63-27c89 8 146-16 146-99s-60-101-146-95v194" id="aT"/><path fill="#fff" d="M30 0v-248h187v28H63v79h144v27H63v87h162V0H30" id="aU"/><path fill="#fff" d="M185-189c-5-48-123-54-124 2 14 75 158 14 163 119 3 78-121 87-175 55-17-10-28-26-33-46l33-7c5 56 141 63 141-1 0-78-155-14-162-118-5-82 145-84 179-34 5 7 8 16 11 25" id="aV"/><g id="k"><use transform="matrix(0.04320987654320988,0,0,0.04320987654320988,0,0)" xlink:href="#aR"/><use transform="matrix(0.04320987654320988,0,0,0.04320987654320988,11.19135802469136,0)" xlink:href="#aS"/><use transform="matrix(0.04320987654320988,0,0,0.04320987654320988,23.290123456790127,0)" xlink:href="#aT"/><use transform="matrix(0.04320987654320988,0,0,0.04320987654320988,34.48148148148149,0)" xlink:href="#aU"/><use transform="matrix(0.04320987654320988,0,0,0.04320987654320988,44.85185185185187,0)" xlink:href="#aQ"/><use transform="matrix(0.04320987654320988,0,0,0.04320987654320988,56.04320987654322,0)" xlink:href="#aV"/></g><path fill="#fff" d="M177-190C167-65 218 103 67 71c-23-6-38-20-44-43l32-5c15 47 100 32 89-28v-30C133-14 115 1 83 1 29 1 15-40 15-95c0-56 16-97 71-98 29-1 48 16 59 35 1-10 0-23 2-32h30zM94-22c36 0 50-32 50-73 0-42-14-75-50-75-39 0-46 34-46 75s6 73 46 73" id="aW"/><path fill="#fff" d="M141-36C126-15 110 5 73 4 37 3 15-17 15-53c-1-64 63-63 125-63 3-35-9-54-41-54-24 1-41 7-42 31l-33-3c5-37 33-52 76-52 45 0 72 20 72 64v82c-1 20 7 32 28 27v20c-31 9-61-2-59-35zM48-53c0 20 12 33 32 33 41-3 63-29 60-74-43 2-92-5-92 41" id="aX"/><path fill="#fff" d="M59-47c-2 24 18 29 38 22v24C64 9 27 4 27-40v-127H5v-23h24l9-43h21v43h35v23H59v120" id="aY"/><path fill="#fff" d="M106-169C34-169 62-67 57 0H25v-261h32l-1 103c12-21 28-36 61-36 89 0 53 116 60 194h-32v-121c2-32-8-49-39-48" id="aZ"/><path fill="#fff" d="M100-194c63 0 86 42 84 106H49c0 40 14 67 53 68 26 1 43-12 49-29l28 8c-11 28-37 45-77 45C44 4 14-33 15-96c1-61 26-98 85-98zm52 81c6-60-76-77-97-28-3 7-6 17-6 28h103" id="ba"/><path fill="#fff" d="M114-163C36-179 61-72 57 0H25l-1-190h30c1 12-1 29 2 39 6-27 23-49 58-41v29" id="bb"/><g id="l"><use transform="matrix(0.04320987654320988,0,0,0.04320987654320988,0,0)" xlink:href="#aW"/><use transform="matrix(0.04320987654320988,0,0,0.04320987654320988,8.641975308641976,0)" xlink:href="#aX"/><use transform="matrix(0.04320987654320988,0,0,0.04320987654320988,17.283950617283953,0)" xlink:href="#aY"/><use transform="matrix(0.04320987654320988,0,0,0.04320987654320988,21.60493827160494,0)" xlink:href="#aZ"/><use transform="matrix(0.04320987654320988,0,0,0.04320987654320988,30.24691358024692,0)" xlink:href="#ba"/><use transform="matrix(0.04320987654320988,0,0,0.04320987654320988,38.88888888888889,0)" xlink:href="#bb"/></g><path fill="#fff" d="M145-31C134-9 116 4 85 4 32 4 16-35 15-94c0-59 17-99 70-100 32-1 48 14 60 33 0-11-1-24 2-32h30l-1 268h-32zM93-21c41 0 51-33 51-76s-8-73-50-73c-40 0-46 35-46 75s5 74 45 74" id="bc"/><path fill="#fff" d="M84 4C-5 8 30-112 23-190h32v120c0 31 7 50 39 49 72-2 45-101 50-169h31l1 190h-30c-1-10 1-25-2-33-11 22-28 36-60 37" id="bd"/><path fill="#fff" d="M24-231v-30h32v30H24zM24 0v-190h32V0H24" id="be"/><path fill="#fff" d="M210-169c-67 3-38 105-44 169h-31v-121c0-29-5-50-35-48C34-165 62-65 56 0H25l-1-190h30c1 10-1 24 2 32 10-44 99-50 107 0 11-21 27-35 58-36 85-2 47 119 55 194h-31v-121c0-29-5-49-35-48" id="bf"/><path fill="#fff" d="M117-194c89-4 53 116 60 194h-32v-121c0-31-8-49-39-48C34-167 62-67 57 0H25l-1-190h30c1 10-1 24 2 32 11-22 29-35 61-36" id="bg"/><path fill="#fff" d="M135-143c-3-34-86-38-87 0 15 53 115 12 119 90S17 21 10-45l28-5c4 36 97 45 98 0-10-56-113-15-118-90-4-57 82-63 122-42 12 7 21 19 24 35" id="bh"/><g id="m"><use transform="matrix(0.04320987654320988,0,0,0.04320987654320988,0,0)" xlink:href="#bb"/><use transform="matrix(0.04320987654320988,0,0,0.04320987654320988,5.1419753086419755,0)" xlink:href="#ba"/><use transform="matrix(0.04320987654320988,0,0,0.04320987654320988,13.783950617283953,0)" xlink:href="#bc"/><use transform="matrix(0.04320987654320988,0,0,0.04320987654320988,22.425925925925934,0)" xlink:href="#bd"/><use transform="matrix(0.04320987654320988,0,0,0.04320987654320988,31.067901234567906,0)" xlink:href="#be"/><use transform="matrix(0.04320987654320988,0,0,0.04320987654320988,34.48148148148149,0)" xlink:href="#bb"/><use transform="matrix(0.04320987654320988,0,0,0.04320987654320988,39.62345679012346,0)" xlink:href="#ba"/><use transform="matrix(0.04320987654320988,0,0,0.04320987654320988,48.26543209876544,0)" xlink:href="#bf"/><use transform="matrix(0.04320987654320988,0,0,0.04320987654320988,61.18518518518519,0)" xlink:href="#ba"/><use transform="matrix(0.04320987654320988,0,0,0.04320987654320988,69.82716049382717,0)" xlink:href="#bg"/><use transform="matrix(0.04320987654320988,0,0,0.04320987654320988,78.46913580246914,0)" xlink:href="#aY"/><use transform="matrix(0.04320987654320988,0,0,0.04320987654320988,82.79012345679013,0)" xlink:href="#bh"/></g><path fill="#fff" d="M232-93c-1 65-40 97-104 97C67 4 28-28 28-90v-158h33c8 89-33 224 67 224 102 0 64-133 71-224h33v155" id="bi"/><g id="n"><use transform="matrix(0.07407407407407408,0,0,0.07407407407407408,0,0)" xlink:href="#bi"/><use transform="matrix(0.07407407407407408,0,0,0.07407407407407408,19.185185185185187,0)" xlink:href="#aV"/><use transform="matrix(0.07407407407407408,0,0,0.07407407407407408,36.96296296296296,0)" xlink:href="#aU"/></g><use transform="matrix(0.07407407407407408,0,0,0.07407407407407408,0,0)" xlink:href="#aQ" id="o"/><g id="p"><use transform="matrix(0.07407407407407408,0,0,0.07407407407407408,0,0)" xlink:href="#aY"/><use transform="matrix(0.07407407407407408,0,0,0.07407407407407408,7.407407407407408,0)" xlink:href="#aZ"/><use transform="matrix(0.07407407407407408,0,0,0.07407407407407408,22.222222222222225,0)" xlink:href="#ba"/></g><path fill="#fff" d="M100-194c62-1 85 37 85 99 1 63-27 99-86 99S16-35 15-95c0-66 28-99 85-99zM99-20c44 1 53-31 53-75 0-43-8-75-51-75s-53 32-53 75 10 74 51 75" id="bj"/><path fill="#fff" d="M115-194c55 1 70 41 70 98S169 2 115 4C84 4 66-9 55-30l1 105H24l-1-265h31l2 30c10-21 28-34 59-34zm-8 174c40 0 45-34 45-75s-6-73-45-74c-42 0-51 32-51 76 0 43 10 73 51 73" id="bk"/><path fill="#fff" d="M96-169c-40 0-48 33-48 73s9 75 48 75c24 0 41-14 43-38l32 2c-6 37-31 61-74 61-59 0-76-41-82-99-10-93 101-131 147-64 4 7 5 14 7 22l-32 3c-4-21-16-35-41-35" id="bl"/><g id="q"><use transform="matrix(0.07407407407407408,0,0,0.07407407407407408,0,0)" xlink:href="#aY"/><use transform="matrix(0.07407407407407408,0,0,0.07407407407407408,7.407407407407408,0)" xlink:href="#bj"/><use transform="matrix(0.07407407407407408,0,0,0.07407407407407408,22.222222222222225,0)" xlink:href="#bk"/><use transform="matrix(0.07407407407407408,0,0,0.07407407407407408,37.03703703703704,0)" xlink:href="#be"/><use transform="matrix(0.07407407407407408,0,0,0.07407407407407408,42.88888888888889,0)" xlink:href="#bl"/><use transform="matrix(0.07407407407407408,0,0,0.07407407407407408,56.22222222222223,0)" xlink:href="#bh"/></g><path fill="#fff" d="M24 0v-261h32V0H24" id="bm"/><g id="r"><use transform="matrix(0.07407407407407408,0,0,0.07407407407407408,0,0)" xlink:href="#bb"/><use transform="matrix(0.07407407407407408,0,0,0.07407407407407408,8.814814814814817,0)" xlink:href="#ba"/><use transform="matrix(0.07407407407407408,0,0,0.07407407407407408,23.629629629629633,0)" xlink:href="#bm"/><use transform="matrix(0.07407407407407408,0,0,0.07407407407407408,29.481481481481488,0)" xlink:href="#aX"/><use transform="matrix(0.07407407407407408,0,0,0.07407407407407408,44.296296296296305,0)" xlink:href="#aY"/><use transform="matrix(0.07407407407407408,0,0,0.07407407407407408,51.70370370370371,0)" xlink:href="#be"/><use transform="matrix(0.07407407407407408,0,0,0.07407407407407408,57.555555555555564,0)" xlink:href="#bj"/><use transform="matrix(0.07407407407407408,0,0,0.07407407407407408,72.37037037037038,0)" xlink:href="#bg"/></g><path fill="#fff" d="M115-194c53 0 69 39 70 98 0 66-23 100-70 100C84 3 66-7 56-30L54 0H23l1-261h32v101c10-23 28-34 59-34zm-8 174c40 0 45-34 45-75 0-40-5-75-45-74-42 0-51 32-51 76 0 43 10 73 51 73" id="bn"/><path fill="#fff" d="M206 0h-36l-40-164L89 0H53L-1-190h32L70-26l43-164h34l41 164 42-164h31" id="bo"/><g id="s"><use transform="matrix(0.07407407407407408,0,0,0.07407407407407408,0,0)" xlink:href="#bn"/><use transform="matrix(0.07407407407407408,0,0,0.07407407407407408,14.814814814814817,0)" xlink:href="#ba"/><use transform="matrix(0.07407407407407408,0,0,0.07407407407407408,29.629629629629633,0)" xlink:href="#bm"/><use transform="matrix(0.07407407407407408,0,0,0.07407407407407408,35.48148148148149,0)" xlink:href="#bj"/><use transform="matrix(0.07407407407407408,0,0,0.07407407407407408,50.296296296296305,0)" xlink:href="#bo"/></g><path fill="#666" d="M30 0v-248h187v28H63v79h144v27H63v87h162V0H30" id="bp"/><path fill="#666" d="M141 0L90-78 38 0H4l68-98-65-92h35l48 74 47-74h35l-64 92 68 98h-35" id="bq"/><path fill="#666" d="M24-231v-30h32v30H24zM24 0v-190h32V0H24" id="br"/><path fill="#666" d="M135-143c-3-34-86-38-87 0 15 53 115 12 119 90S17 21 10-45l28-5c4 36 97 45 98 0-10-56-113-15-118-90-4-57 82-63 122-42 12 7 21 19 24 35" id="bs"/><path fill="#666" d="M59-47c-2 24 18 29 38 22v24C64 9 27 4 27-40v-127H5v-23h24l9-43h21v43h35v23H59v120" id="bt"/><path fill="#666" d="M117-194c89-4 53 116 60 194h-32v-121c0-31-8-49-39-48C34-167 62-67 57 0H25l-1-190h30c1 10-1 24 2 32 11-22 29-35 61-36" id="bu"/><path fill="#666" d="M177-190C167-65 218 103 67 71c-23-6-38-20-44-43l32-5c15 47 100 32 89-28v-30C133-14 115 1 83 1 29 1 15-40 15-95c0-56 16-97 71-98 29-1 48 16 59 35 1-10 0-23 2-32h30zM94-22c36 0 50-32 50-73 0-42-14-75-50-75-39 0-46 34-46 75s6 73 46 73" id="bv"/><g id="t"><use transform="matrix(0.04320987654320988,0,0,0.04320987654320988,0,0)" xlink:href="#bp"/><use transform="matrix(0.04320987654320988,0,0,0.04320987654320988,10.370370370370372,0)" xlink:href="#bq"/><use transform="matrix(0.04320987654320988,0,0,0.04320987654320988,18.148148148148152,0)" xlink:href="#br"/><use transform="matrix(0.04320987654320988,0,0,0.04320987654320988,21.561728395061735,0)" xlink:href="#bs"/><use transform="matrix(0.04320987654320988,0,0,0.04320987654320988,29.339506172839513,0)" xlink:href="#bt"/><use transform="matrix(0.04320987654320988,0,0,0.04320987654320988,33.6604938271605,0)" xlink:href="#br"/><use transform="matrix(0.04320987654320988,0,0,0.04320987654320988,37.07407407407408,0)" xlink:href="#bu"/><use transform="matrix(0.04320987654320988,0,0,0.04320987654320988,45.71604938271605,0)" xlink:href="#bv"/></g><path fill="#666" d="M100-194c62-1 85 37 85 99 1 63-27 99-86 99S16-35 15-95c0-66 28-99 85-99zM99-20c44 1 53-31 53-75 0-43-8-75-51-75s-53 32-53 75 10 74 51 75" id="bw"/><path fill="#666" d="M24 0v-261h32V0H24" id="bx"/><path fill="#666" d="M84 4C-5 8 30-112 23-190h32v120c0 31 7 50 39 49 72-2 45-101 50-169h31l1 190h-30c-1-10 1-25-2-33-11 22-28 36-60 37" id="by"/><path fill="#666" d="M103-251c84 0 111 97 45 133-19 10-37 24-39 52H78c0-63 77-55 77-114 0-30-21-42-52-43-32 0-53 17-56 46l-32-2c7-45 34-72 88-72zM77 0v-35h34V0H77" id="bz"/><g id="u"><use transform="matrix(0.04320987654320988,0,0,0.04320987654320988,0,0)" xlink:href="#bs"/><use transform="matrix(0.04320987654320988,0,0,0.04320987654320988,7.777777777777779,0)" xlink:href="#bw"/><use transform="matrix(0.04320987654320988,0,0,0.04320987654320988,16.419753086419753,0)" xlink:href="#bx"/><use transform="matrix(0.04320987654320988,0,0,0.04320987654320988,19.833333333333336,0)" xlink:href="#by"/><use transform="matrix(0.04320987654320988,0,0,0.04320987654320988,28.47530864197531,0)" xlink:href="#bt"/><use transform="matrix(0.04320987654320988,0,0,0.04320987654320988,32.7962962962963,0)" xlink:href="#br"/><use transform="matrix(0.04320987654320988,0,0,0.04320987654320988,36.20987654320988,0)" xlink:href="#bw"/><use transform="matrix(0.04320987654320988,0,0,0.04320987654320988,44.851851851851855,0)" xlink:href="#bu"/><use transform="matrix(0.04320987654320988,0,0,0.04320987654320988,53.49382716049383,0)" xlink:href="#bz"/></g><path fill="#fff" d="M127-220V0H93v-220H8v-28h204v28h-85" id="bA"/><g id="v"><use transform="matrix(0.07407407407407408,0,0,0.07407407407407408,0,0)" xlink:href="#bA"/><use transform="matrix(0.07407407407407408,0,0,0.07407407407407408,16.222222222222225,0)" xlink:href="#aZ"/><use transform="matrix(0.07407407407407408,0,0,0.07407407407407408,31.03703703703704,0)" xlink:href="#ba"/></g><g id="w"><use transform="matrix(0.07407407407407408,0,0,0.07407407407407408,0,0)" xlink:href="#aY"/><use transform="matrix(0.07407407407407408,0,0,0.07407407407407408,7.407407407407408,0)" xlink:href="#ba"/><use transform="matrix(0.07407407407407408,0,0,0.07407407407407408,22.222222222222225,0)" xlink:href="#aX"/><use transform="matrix(0.07407407407407408,0,0,0.07407407407407408,37.03703703703704,0)" xlink:href="#bf"/></g><g id="x"><use transform="matrix(0.07407407407407408,0,0,0.07407407407407408,0,0)" xlink:href="#bl"/><use transform="matrix(0.07407407407407408,0,0,0.07407407407407408,13.333333333333336,0)" xlink:href="#aX"/><use transform="matrix(0.07407407407407408,0,0,0.07407407407407408,28.148148148148152,0)" xlink:href="#bg"/></g><g id="y"><use transform="matrix(0.07407407407407408,0,0,0.07407407407407408,0,0)" xlink:href="#bd"/><use transform="matrix(0.07407407407407408,0,0,0.07407407407407408,14.814814814814817,0)" xlink:href="#bh"/><use transform="matrix(0.07407407407407408,0,0,0.07407407407407408,28.148148148148152,0)" xlink:href="#ba"/></g><path fill="#fff" d="M85-194c31 0 48 13 60 33l-1-100h32l1 261h-30c-2-10 0-23-3-31C134-8 116 4 85 4 32 4 16-35 15-94c0-66 23-100 70-100zm9 24c-40 0-46 34-46 75 0 40 6 74 45 74 42 0 51-32 51-76 0-42-9-74-50-73" id="bB"/><path fill="#fff" d="M101-234c-31-9-42 10-38 44h38v23H63V0H32v-167H5v-23h27c-7-52 17-82 69-68v24" id="bC"/><g id="z"><use transform="matrix(0.07407407407407408,0,0,0.07407407407407408,0,0)" xlink:href="#bB"/><use transform="matrix(0.07407407407407408,0,0,0.07407407407407408,14.814814814814817,0)" xlink:href="#be"/><use transform="matrix(0.07407407407407408,0,0,0.07407407407407408,20.666666666666668,0)" xlink:href="#bC"/><use transform="matrix(0.07407407407407408,0,0,0.07407407407407408,27.55555555555556,0)" xlink:href="#bC"/><use transform="matrix(0.07407407407407408,0,0,0.07407407407407408,34.96296296296297,0)" xlink:href="#ba"/><use transform="matrix(0.07407407407407408,0,0,0.07407407407407408,49.777777777777786,0)" xlink:href="#bb"/><use transform="matrix(0.07407407407407408,0,0,0.07407407407407408,58.5925925925926,0)" xlink:href="#ba"/><use transform="matrix(0.07407407407407408,0,0,0.07407407407407408,73.40740740740742,0)" xlink:href="#bg"/><use transform="matrix(0.07407407407407408,0,0,0.07407407407407408,88.22222222222223,0)" xlink:href="#aY"/></g><path fill="#fff" d="M33 0v-248h34V0H33" id="bD"/><g id="A"><use transform="matrix(0.07407407407407408,0,0,0.07407407407407408,0,0)" xlink:href="#bD"/><use transform="matrix(0.07407407407407408,0,0,0.07407407407407408,7.407407407407408,0)" xlink:href="#bA"/></g><g id="B"><use transform="matrix(0.07407407407407408,0,0,0.07407407407407408,0,0)" xlink:href="#aY"/><use transform="matrix(0.07407407407407408,0,0,0.07407407407407408,7.407407407407408,0)" xlink:href="#bj"/><use transform="matrix(0.07407407407407408,0,0,0.07407407407407408,22.222222222222225,0)" xlink:href="#bj"/><use transform="matrix(0.07407407407407408,0,0,0.07407407407407408,37.03703703703704,0)" xlink:href="#bm"/><use transform="matrix(0.07407407407407408,0,0,0.07407407407407408,42.88888888888889,0)" xlink:href="#bh"/></g><path fill="#fff" d="M143 0L79-87 56-68V0H24v-261h32v163l83-92h37l-77 82L181 0h-38" id="bE"/><g id="C"><use transform="matrix(0.07407407407407408,0,0,0.07407407407407408,0,0)" xlink:href="#bm"/><use transform="matrix(0.07407407407407408,0,0,0.07407407407407408,5.851851851851853,0)" xlink:href="#be"/><use transform="matrix(0.07407407407407408,0,0,0.07407407407407408,11.703703703703706,0)" xlink:href="#bE"/><use transform="matrix(0.07407407407407408,0,0,0.07407407407407408,25.03703703703704,0)" xlink:href="#ba"/></g><g id="D"><use transform="matrix(0.07407407407407408,0,0,0.07407407407407408,0,0)" xlink:href="#bA"/><use transform="matrix(0.07407407407407408,0,0,0.07407407407407408,13.259259259259261,0)" xlink:href="#aX"/><use transform="matrix(0.07407407407407408,0,0,0.07407407407407408,28.074074074074076,0)" xlink:href="#bn"/><use transform="matrix(0.07407407407407408,0,0,0.07407407407407408,42.88888888888889,0)" xlink:href="#bm"/><use transform="matrix(0.07407407407407408,0,0,0.07407407407407408,48.74074074074075,0)" xlink:href="#ba"/><use transform="matrix(0.07407407407407408,0,0,0.07407407407407408,63.555555555555564,0)" xlink:href="#aX"/><use transform="matrix(0.07407407407407408,0,0,0.07407407407407408,78.37037037037038,0)" xlink:href="#bd"/></g><path d="M232-93c-1 65-40 97-104 97C67 4 28-28 28-90v-158h33c8 89-33 224 67 224 102 0 64-133 71-224h33v155" id="bF"/><g id="E"><use transform="matrix(0.08641975308641976,0,0,0.08641975308641976,0,0)" xlink:href="#aA"/><use transform="matrix(0.08641975308641976,0,0,0.08641975308641976,20.740740740740744,0)" xlink:href="#aC"/><use transform="matrix(0.08641975308641976,0,0,0.08641975308641976,43.12345679012346,0)" xlink:href="#aB"/><use transform="matrix(0.08641975308641976,0,0,0.08641975308641976,67.32098765432099,0)" xlink:href="#aN"/><use transform="matrix(0.08641975308641976,0,0,0.08641975308641976,89.70370370370371,0)" xlink:href="#bF"/><use transform="matrix(0.08641975308641976,0,0,0.08641975308641976,112.08641975308643,0)" xlink:href="#aP"/><use transform="matrix(0.08641975308641976,0,0,0.08641975308641976,134.46913580246914,0)" xlink:href="#as"/></g><g id="F"><use transform="matrix(0.08641975308641976,0,0,0.08641975308641976,0,0)" xlink:href="#aO"/><use transform="matrix(0.08641975308641976,0,0,0.08641975308641976,20.740740740740744,0)" xlink:href="#aJ"/><use transform="matrix(0.08641975308641976,0,0,0.08641975308641976,41.48148148148149,0)" xlink:href="#aK"/><use transform="matrix(0.08641975308641976,0,0,0.08641975308641976,62.22222222222223,0)" xlink:href="#ay"/><use transform="matrix(0.08641975308641976,0,0,0.08641975308641976,82.96296296296298,0)" xlink:href="#aN"/></g><g id="G"><use transform="matrix(0.08641975308641976,0,0,0.08641975308641976,0,0)" xlink:href="#ay"/><use transform="matrix(0.08641975308641976,0,0,0.08641975308641976,20.740740740740744,0)" xlink:href="#az"/><use transform="matrix(0.08641975308641976,0,0,0.08641975308641976,41.48148148148149,0)" xlink:href="#aA"/><use transform="matrix(0.08641975308641976,0,0,0.08641975308641976,62.22222222222223,0)" xlink:href="#aB"/><use transform="matrix(0.08641975308641976,0,0,0.08641975308641976,86.41975308641976,0)" xlink:href="#aC"/><use transform="matrix(0.08641975308641976,0,0,0.08641975308641976,108.19753086419755,0)" xlink:href="#as"/></g><g id="H"><use transform="matrix(0.08641975308641976,0,0,0.08641975308641976,0,0)" xlink:href="#aC"/><use transform="matrix(0.08641975308641976,0,0,0.08641975308641976,22.38271604938272,0)" xlink:href="#aJ"/><use transform="matrix(0.08641975308641976,0,0,0.08641975308641976,40.79012345679013,0)" xlink:href="#as"/><use transform="matrix(0.08641975308641976,0,0,0.08641975308641976,59.71604938271606,0)" xlink:href="#ay"/></g><path fill="#666" d="M62-168c30 0 50 19 50 48S92-70 62-70c-29 0-48-21-48-50s20-48 48-48" id="bG"/><use transform="matrix(0.06172839506172839,0,0,0.06172839506172839,0,0)" xlink:href="#bG" id="I"/><path fill="#666" d="M212-179c-10-28-35-45-73-45-59 0-87 40-87 99 0 60 29 101 89 101 43 0 62-24 78-52l27 14C228-24 195 4 139 4 59 4 22-46 18-125c-6-104 99-153 187-111 19 9 31 26 39 46" id="bH"/><path fill="#666" d="M106-169C34-169 62-67 57 0H25v-261h32l-1 103c12-21 28-36 61-36 89 0 53 116 60 194h-32v-121c2-32-8-49-39-48" id="bI"/><path fill="#666" d="M141-36C126-15 110 5 73 4 37 3 15-17 15-53c-1-64 63-63 125-63 3-35-9-54-41-54-24 1-41 7-42 31l-33-3c5-37 33-52 76-52 45 0 72 20 72 64v82c-1 20 7 32 28 27v20c-31 9-61-2-59-35zM48-53c0 20 12 33 32 33 41-3 63-29 60-74-43 2-92-5-92 41" id="bJ"/><path fill="#666" d="M100-194c63 0 86 42 84 106H49c0 40 14 67 53 68 26 1 43-12 49-29l28 8c-11 28-37 45-77 45C44 4 14-33 15-96c1-61 26-98 85-98zm52 81c6-60-76-77-97-28-3 7-6 17-6 28h103" id="bK"/><g id="J"><use transform="matrix(0.06172839506172839,0,0,0.06172839506172839,0,0)" xlink:href="#bH"/><use transform="matrix(0.06172839506172839,0,0,0.06172839506172839,15.987654320987653,0)" xlink:href="#bI"/><use transform="matrix(0.06172839506172839,0,0,0.06172839506172839,28.333333333333332,0)" xlink:href="#bJ"/><use transform="matrix(0.06172839506172839,0,0,0.06172839506172839,40.67901234567901,0)" xlink:href="#bu"/><use transform="matrix(0.06172839506172839,0,0,0.06172839506172839,53.02469135802469,0)" xlink:href="#bv"/><use transform="matrix(0.06172839506172839,0,0,0.06172839506172839,65.37037037037037,0)" xlink:href="#bK"/></g><path fill="#666" d="M101-234c-31-9-42 10-38 44h38v23H63V0H32v-167H5v-23h27c-7-52 17-82 69-68v24" id="bL"/><g id="K"><use transform="matrix(0.06172839506172839,0,0,0.06172839506172839,0,0)" xlink:href="#bw"/><use transform="matrix(0.06172839506172839,0,0,0.06172839506172839,12.345679012345679,0)" xlink:href="#bL"/></g><path fill="#666" d="M115-194c55 1 70 41 70 98S169 2 115 4C84 4 66-9 55-30l1 105H24l-1-265h31l2 30c10-21 28-34 59-34zm-8 174c40 0 45-34 45-75s-6-73-45-74c-42 0-51 32-51 76 0 43 10 73 51 73" id="bM"/><path fill="#666" d="M114-163C36-179 61-72 57 0H25l-1-190h30c1 12-1 29 2 39 6-27 23-49 58-41v29" id="bN"/><g id="L"><use transform="matrix(0.06172839506172839,0,0,0.06172839506172839,0,0)" xlink:href="#bK"/><use transform="matrix(0.06172839506172839,0,0,0.06172839506172839,12.345679012345679,0)" xlink:href="#bq"/><use transform="matrix(0.06172839506172839,0,0,0.06172839506172839,23.45679012345679,0)" xlink:href="#bM"/><use transform="matrix(0.06172839506172839,0,0,0.06172839506172839,35.80246913580247,0)" xlink:href="#bw"/><use transform="matrix(0.06172839506172839,0,0,0.06172839506172839,48.148148148148145,0)" xlink:href="#bN"/><use transform="matrix(0.06172839506172839,0,0,0.06172839506172839,55.49382716049382,0)" xlink:href="#bt"/></g><path fill="#666" d="M85-194c31 0 48 13 60 33l-1-100h32l1 261h-30c-2-10 0-23-3-31C134-8 116 4 85 4 32 4 16-35 15-94c0-66 23-100 70-100zm9 24c-40 0-46 34-46 75 0 40 6 74 45 74 42 0 51-32 51-76 0-42-9-74-50-73" id="bO"/><path fill="#666" d="M96-169c-40 0-48 33-48 73s9 75 48 75c24 0 41-14 43-38l32 2c-6 37-31 61-74 61-59 0-76-41-82-99-10-93 101-131 147-64 4 7 5 14 7 22l-32 3c-4-21-16-35-41-35" id="bP"/><g id="M"><use transform="matrix(0.06172839506172839,0,0,0.06172839506172839,0,0)" xlink:href="#bM"/><use transform="matrix(0.06172839506172839,0,0,0.06172839506172839,12.345679012345679,0)" xlink:href="#bN"/><use transform="matrix(0.06172839506172839,0,0,0.06172839506172839,19.691358024691358,0)" xlink:href="#bw"/><use transform="matrix(0.06172839506172839,0,0,0.06172839506172839,32.03703703703704,0)" xlink:href="#bO"/><use transform="matrix(0.06172839506172839,0,0,0.06172839506172839,44.382716049382715,0)" xlink:href="#by"/><use transform="matrix(0.06172839506172839,0,0,0.06172839506172839,56.72839506172839,0)" xlink:href="#bP"/><use transform="matrix(0.06172839506172839,0,0,0.06172839506172839,67.8395061728395,0)" xlink:href="#bt"/></g><path fill="#666" d="M115-194c53 0 69 39 70 98 0 66-23 100-70 100C84 3 66-7 56-30L54 0H23l1-261h32v101c10-23 28-34 59-34zm-8 174c40 0 45-34 45-75 0-40-5-75-45-74-42 0-51 32-51 76 0 43 10 73 51 73" id="bQ"/><path fill="#666" d="M179-190L93 31C79 59 56 82 12 73V49c39 6 53-20 64-50L1-190h34L92-34l54-156h33" id="bR"/><g id="N"><use transform="matrix(0.06172839506172839,0,0,0.06172839506172839,0,0)" xlink:href="#bQ"/><use transform="matrix(0.06172839506172839,0,0,0.06172839506172839,12.345679012345679,0)" xlink:href="#bR"/></g><path fill="#666" d="M210-169c-67 3-38 105-44 169h-31v-121c0-29-5-50-35-48C34-165 62-65 56 0H25l-1-190h30c1 10-1 24 2 32 10-44 99-50 107 0 11-21 27-35 58-36 85-2 47 119 55 194h-31v-121c0-29-5-49-35-48" id="bS"/><g id="O"><use transform="matrix(0.06172839506172839,0,0,0.06172839506172839,0,0)" xlink:href="#bt"/><use transform="matrix(0.06172839506172839,0,0,0.06172839506172839,6.172839506172839,0)" xlink:href="#br"/><use transform="matrix(0.06172839506172839,0,0,0.06172839506172839,11.049382716049383,0)" xlink:href="#bS"/><use transform="matrix(0.06172839506172839,0,0,0.06172839506172839,29.50617283950617,0)" xlink:href="#bK"/></g><path fill="#666" d="M30-248c87 1 191-15 191 75 0 78-77 80-158 76V0H30v-248zm33 125c57 0 124 11 124-50 0-59-68-47-124-48v98" id="bT"/><g id="P"><use transform="matrix(0.06172839506172839,0,0,0.06172839506172839,0,0)" xlink:href="#bT"/><use transform="matrix(0.06172839506172839,0,0,0.06172839506172839,14.814814814814813,0)" xlink:href="#bN"/><use transform="matrix(0.06172839506172839,0,0,0.06172839506172839,22.160493827160494,0)" xlink:href="#bw"/><use transform="matrix(0.06172839506172839,0,0,0.06172839506172839,34.50617283950617,0)" xlink:href="#bO"/><use transform="matrix(0.06172839506172839,0,0,0.06172839506172839,46.85185185185185,0)" xlink:href="#by"/><use transform="matrix(0.06172839506172839,0,0,0.06172839506172839,59.197530864197525,0)" xlink:href="#bP"/><use transform="matrix(0.06172839506172839,0,0,0.06172839506172839,70.30864197530863,0)" xlink:href="#bt"/></g><path fill="#666" d="M233-177c-1 41-23 64-60 70L243 0h-38l-65-103H63V0H30v-248c88 3 205-21 203 71zM63-129c60-2 137 13 137-47 0-61-80-42-137-45v92" id="bU"/><g id="Q"><use transform="matrix(0.06172839506172839,0,0,0.06172839506172839,0,0)" xlink:href="#bU"/><use transform="matrix(0.06172839506172839,0,0,0.06172839506172839,15.987654320987653,0)" xlink:href="#bJ"/><use transform="matrix(0.06172839506172839,0,0,0.06172839506172839,28.333333333333332,0)" xlink:href="#bu"/><use transform="matrix(0.06172839506172839,0,0,0.06172839506172839,40.67901234567901,0)" xlink:href="#bv"/><use transform="matrix(0.06172839506172839,0,0,0.06172839506172839,53.02469135802469,0)" xlink:href="#bK"/></g><path fill="#666" d="M146-102V0H94v-102L6-248h54l60 105 60-105h54" id="bV"/><path fill="#666" d="M24 0v-248h195v40H76v63h132v40H76v65h150V0H24" id="bW"/><path fill="#666" d="M169-182c-1-43-94-46-97-3 18 66 151 10 154 114 3 95-165 93-204 36-6-8-10-19-12-30l50-8c3 46 112 56 116 5-17-69-150-10-154-114-4-87 153-88 188-35 5 8 8 18 10 28" id="bX"/><g id="R"><use transform="matrix(0.03703703703703704,0,0,0.03703703703703704,0,0)" xlink:href="#bV"/><use transform="matrix(0.03703703703703704,0,0,0.03703703703703704,8.88888888888889,0)" xlink:href="#bW"/><use transform="matrix(0.03703703703703704,0,0,0.03703703703703704,17.77777777777778,0)" xlink:href="#bX"/></g><path fill="#666" d="M175 0L67-191c6 58 2 128 3 191H24v-248h59L193-55c-6-58-2-129-3-193h46V0h-61" id="bY"/><path fill="#666" d="M140-251c80 0 125 45 125 126S219 4 139 4C58 4 15-44 15-125s44-126 125-126zm-1 214c52 0 73-35 73-88 0-50-21-86-72-86-52 0-73 35-73 86s22 88 72 88" id="bZ"/><g id="S"><use transform="matrix(0.03703703703703704,0,0,0.03703703703703704,0,0)" xlink:href="#bY"/><use transform="matrix(0.03703703703703704,0,0,0.03703703703703704,9.592592592592593,0)" xlink:href="#bZ"/></g><path fill="#b2b2b2" d="M240-174c0 40-23 61-54 70L253 0h-59l-57-94H76V0H24v-248c93 4 217-23 216 74zM76-134c48-2 112 12 112-38 0-48-66-32-112-35v73" id="ca"/><use transform="matrix(0.07407407407407408,0,0,0.07407407407407408,0,0)" xlink:href="#ca" id="T"/><path fill="#b2b2b2" d="M24-248c93 1 206-16 204 79-1 75-69 88-152 82V0H24v-248zm52 121c47 0 100 7 100-41 0-47-54-39-100-39v80" id="cb"/><path fill="#b2b2b2" d="M140-251c80 0 125 45 125 126S219 4 139 4C58 4 15-44 15-125s44-126 125-126zm-1 214c52 0 73-35 73-88 0-50-21-86-72-86-52 0-73 35-73 86s22 88 72 88" id="cc"/><path fill="#b2b2b2" d="M176-78C186 10 51 31 16-35c-5-9-9-19-11-32l52-8c4 21 12 37 35 38 23 0 32-16 32-40v-130H75v-41h101v170" id="cd"/><path fill="#b2b2b2" d="M24 0v-248h195v40H76v63h132v40H76v65h150V0H24" id="ce"/><path fill="#b2b2b2" d="M67-125c0 53 21 87 73 88 37 1 54-22 65-47l45 17C233-25 199 4 140 4 58 4 20-42 15-125 8-235 124-281 211-232c18 10 29 29 36 50l-46 12c-8-25-30-41-62-41-52 0-71 34-72 86" id="cf"/><path fill="#b2b2b2" d="M136-208V0H84v-208H4v-40h212v40h-80" id="cg"/><g id="U"><use transform="matrix(0.07407407407407408,0,0,0.07407407407407408,0,0)" xlink:href="#cb"/><use transform="matrix(0.07407407407407408,0,0,0.07407407407407408,17.77777777777778,0)" xlink:href="#ca"/><use transform="matrix(0.07407407407407408,0,0,0.07407407407407408,36.96296296296296,0)" xlink:href="#cc"/><use transform="matrix(0.07407407407407408,0,0,0.07407407407407408,57.70370370370371,0)" xlink:href="#cd"/><use transform="matrix(0.07407407407407408,0,0,0.07407407407407408,72.51851851851853,0)" xlink:href="#ce"/><use transform="matrix(0.07407407407407408,0,0,0.07407407407407408,90.2962962962963,0)" xlink:href="#cf"/><use transform="matrix(0.07407407407407408,0,0,0.07407407407407408,109.4814814814815,0)" xlink:href="#cg"/></g><path fill="#b2b2b2" d="M24 0v-248h52V0H24" id="ch"/><path fill="#b2b2b2" d="M230 0l2-204L168 0h-37L68-204 70 0H24v-248h70l56 185 57-185h69V0h-46" id="ci"/><g id="V"><use transform="matrix(0.07407407407407408,0,0,0.07407407407407408,0,0)" xlink:href="#ch"/><use transform="matrix(0.07407407407407408,0,0,0.07407407407407408,7.407407407407408,0)" xlink:href="#ci"/><use transform="matrix(0.07407407407407408,0,0,0.07407407407407408,29.55555555555556,0)" xlink:href="#cb"/><use transform="matrix(0.07407407407407408,0,0,0.07407407407407408,47.33333333333334,0)" xlink:href="#cc"/><use transform="matrix(0.07407407407407408,0,0,0.07407407407407408,68.07407407407409,0)" xlink:href="#ca"/><use transform="matrix(0.07407407407407408,0,0,0.07407407407407408,87.25925925925928,0)" xlink:href="#cg"/></g><path fill="#b2b2b2" d="M182 0l-62-99L58 0H3l86-130-79-118h55l55 88 55-88h55l-75 118L237 0h-55" id="cj"/><g id="W"><use transform="matrix(0.07407407407407408,0,0,0.07407407407407408,0,0)" xlink:href="#ce"/><use transform="matrix(0.07407407407407408,0,0,0.07407407407407408,17.77777777777778,0)" xlink:href="#cj"/><use transform="matrix(0.07407407407407408,0,0,0.07407407407407408,35.55555555555556,0)" xlink:href="#cb"/><use transform="matrix(0.07407407407407408,0,0,0.07407407407407408,53.33333333333333,0)" xlink:href="#cc"/><use transform="matrix(0.07407407407407408,0,0,0.07407407407407408,74.07407407407408,0)" xlink:href="#ca"/><use transform="matrix(0.07407407407407408,0,0,0.07407407407407408,93.25925925925927,0)" xlink:href="#cg"/></g><path fill="#b2b2b2" d="M199 0l-22-63H83L61 0H9l90-248h61L250 0h-51zm-33-102l-36-108c-10 38-24 72-36 108h72" id="ck"/><path fill="#b2b2b2" d="M175 0L67-191c6 58 2 128 3 191H24v-248h59L193-55c-6-58-2-129-3-193h46V0h-61" id="cl"/><path fill="#b2b2b2" d="M24 0v-248h52v208h133V0H24" id="cm"/><path fill="#b2b2b2" d="M146-102V0H94v-102L6-248h54l60 105 60-105h54" id="cn"/><path fill="#b2b2b2" d="M169-182c-1-43-94-46-97-3 18 66 151 10 154 114 3 95-165 93-204 36-6-8-10-19-12-30l50-8c3 46 112 56 116 5-17-69-150-10-154-114-4-87 153-88 188-35 5 8 8 18 10 28" id="co"/><g id="X"><use transform="matrix(0.07407407407407408,0,0,0.07407407407407408,0,0)" xlink:href="#ck"/><use transform="matrix(0.07407407407407408,0,0,0.07407407407407408,19.185185185185187,0)" xlink:href="#cl"/><use transform="matrix(0.07407407407407408,0,0,0.07407407407407408,38.370370370370374,0)" xlink:href="#ck"/><use transform="matrix(0.07407407407407408,0,0,0.07407407407407408,57.55555555555556,0)" xlink:href="#cm"/><use transform="matrix(0.07407407407407408,0,0,0.07407407407407408,71.33333333333334,0)" xlink:href="#cn"/><use transform="matrix(0.07407407407407408,0,0,0.07407407407407408,89.1111111111111,0)" xlink:href="#co"/><use transform="matrix(0.07407407407407408,0,0,0.07407407407407408,106.88888888888889,0)" xlink:href="#ch"/><use transform="matrix(0.07407407407407408,0,0,0.07407407407407408,114.29629629629629,0)" xlink:href="#co"/></g><path d="M-5 72V49h209v23H-5" id="cp"/><g id="Y"><use transform="matrix(0.04320987654320988,0,0,0.04320987654320988,0,0)" xlink:href="#aC"/><use transform="matrix(0.04320987654320988,0,0,0.04320987654320988,11.19135802469136,0)" xlink:href="#cp"/><use transform="matrix(0.04320987654320988,0,0,0.04320987654320988,19.833333333333336,0)" xlink:href="#aP"/><use transform="matrix(0.04320987654320988,0,0,0.04320987654320988,31.024691358024693,0)" xlink:href="#aB"/><use transform="matrix(0.04320987654320988,0,0,0.04320987654320988,43.12345679012346,0)" xlink:href="#aN"/><use transform="matrix(0.04320987654320988,0,0,0.04320987654320988,54.314814814814824,0)" xlink:href="#ay"/><use transform="matrix(0.04320987654320988,0,0,0.04320987654320988,64.68518518518519,0)" xlink:href="#aC"/><use transform="matrix(0.04320987654320988,0,0,0.04320987654320988,75.87654320987654,0)" xlink:href="#aK"/></g><g id="Z"><use transform="matrix(0.1111111111111111,0,0,0.1111111111111111,0,0)" xlink:href="#as"/><use transform="matrix(0.1111111111111111,0,0,0.1111111111111111,24.333333333333332,0)" xlink:href="#aE"/><use transform="matrix(0.1111111111111111,0,0,0.1111111111111111,35.44444444444444,0)" xlink:href="#aF"/><use transform="matrix(0.1111111111111111,0,0,0.1111111111111111,68.66666666666666,0)" xlink:href="#ay"/></g><g id="aa"><use transform="matrix(0.08641975308641976,0,0,0.08641975308641976,0,0)" xlink:href="#ay"/><use transform="matrix(0.08641975308641976,0,0,0.08641975308641976,20.740740740740744,0)" xlink:href="#az"/><use transform="matrix(0.08641975308641976,0,0,0.08641975308641976,41.48148148148149,0)" xlink:href="#aA"/><use transform="matrix(0.08641975308641976,0,0,0.08641975308641976,62.22222222222223,0)" xlink:href="#aB"/><use transform="matrix(0.08641975308641976,0,0,0.08641975308641976,86.41975308641976,0)" xlink:href="#aC"/><use transform="matrix(0.08641975308641976,0,0,0.08641975308641976,108.19753086419755,0)" xlink:href="#as"/></g><g id="ab"><use transform="matrix(0.08641975308641976,0,0,0.08641975308641976,0,0)" xlink:href="#aE"/><use transform="matrix(0.08641975308641976,0,0,0.08641975308641976,8.641975308641976,0)" xlink:href="#aF"/><use transform="matrix(0.08641975308641976,0,0,0.08641975308641976,34.48148148148149,0)" xlink:href="#aA"/><use transform="matrix(0.08641975308641976,0,0,0.08641975308641976,55.22222222222223,0)" xlink:href="#aB"/><use transform="matrix(0.08641975308641976,0,0,0.08641975308641976,79.41975308641976,0)" xlink:href="#aC"/><use transform="matrix(0.08641975308641976,0,0,0.08641975308641976,101.19753086419755,0)" xlink:href="#as"/></g><g id="ac"><use transform="matrix(0.07407407407407408,0,0,0.07407407407407408,0,0)" xlink:href="#aE"/><use transform="matrix(0.07407407407407408,0,0,0.07407407407407408,7.407407407407408,0)" xlink:href="#aG"/><use transform="matrix(0.07407407407407408,0,0,0.07407407407407408,26.592592592592595,0)" xlink:href="#aH"/><use transform="matrix(0.07407407407407408,0,0,0.07407407407407408,42.814814814814824,0)" xlink:href="#aI"/><use transform="matrix(0.07407407407407408,0,0,0.07407407407407408,57.62962962962964,0)" xlink:href="#aJ"/><use transform="matrix(0.07407407407407408,0,0,0.07407407407407408,73.40740740740742,0)" xlink:href="#as"/><use transform="matrix(0.07407407407407408,0,0,0.07407407407407408,89.62962962962965,0)" xlink:href="#aE"/><use transform="matrix(0.07407407407407408,0,0,0.07407407407407408,97.03703703703705,0)" xlink:href="#aB"/><use transform="matrix(0.07407407407407408,0,0,0.07407407407407408,117.7777777777778,0)" xlink:href="#aG"/></g><g id="ad"><use transform="matrix(0.06172839506172839,0,0,0.06172839506172839,0,0)" xlink:href="#aE"/><use transform="matrix(0.06172839506172839,0,0,0.06172839506172839,6.172839506172839,0)" xlink:href="#aK"/></g><g id="ae"><use transform="matrix(0.06172839506172839,0,0,0.06172839506172839,0,0)" xlink:href="#aJ"/><use transform="matrix(0.06172839506172839,0,0,0.06172839506172839,14.814814814814813,0)" xlink:href="#aH"/><use transform="matrix(0.06172839506172839,0,0,0.06172839506172839,28.33333333333333,0)" xlink:href="#aH"/><use transform="matrix(0.06172839506172839,0,0,0.06172839506172839,41.85185185185185,0)" xlink:href="#ay"/><use transform="matrix(0.06172839506172839,0,0,0.06172839506172839,56.66666666666666,0)" xlink:href="#aP"/><use transform="matrix(0.06172839506172839,0,0,0.06172839506172839,72.65432098765432,0)" xlink:href="#as"/><use transform="matrix(0.06172839506172839,0,0,0.06172839506172839,86.17283950617283,0)" xlink:href="#ay"/><use transform="matrix(0.06172839506172839,0,0,0.06172839506172839,100.98765432098764,0)" xlink:href="#aN"/></g><g id="af"><use transform="matrix(0.06172839506172839,0,0,0.06172839506172839,0,0)" xlink:href="#aO"/><use transform="matrix(0.06172839506172839,0,0,0.06172839506172839,14.814814814814813,0)" xlink:href="#aM"/></g><g id="ag"><use transform="matrix(0.08641975308641976,0,0,0.08641975308641976,0,0)" xlink:href="#aP"/><use transform="matrix(0.08641975308641976,0,0,0.08641975308641976,22.38271604938272,0)" xlink:href="#bF"/><use transform="matrix(0.08641975308641976,0,0,0.08641975308641976,44.76543209876544,0)" xlink:href="#aC"/><use transform="matrix(0.08641975308641976,0,0,0.08641975308641976,67.14814814814815,0)" xlink:href="#aC"/><use transform="matrix(0.08641975308641976,0,0,0.08641975308641976,89.53086419753087,0)" xlink:href="#ay"/><use transform="matrix(0.08641975308641976,0,0,0.08641975308641976,110.27160493827162,0)" xlink:href="#aG"/><use transform="matrix(0.08641975308641976,0,0,0.08641975308641976,132.65432098765433,0)" xlink:href="#aP"/><use transform="matrix(0.08641975308641976,0,0,0.08641975308641976,155.03703703703704,0)" xlink:href="#aM"/></g><path fill="#666" d="M80-196l47-18 7 23-49 13 32 44-20 13-27-46-27 45-21-12 33-44-49-13 8-23 47 19-2-53h23" id="cq"/><use transform="matrix(0.06172839506172839,0,0,0.06172839506172839,0,0)" xlink:href="#cq" id="ah"/><g id="ai"><use transform="matrix(0.06172839506172839,0,0,0.06172839506172839,0,0)" xlink:href="#bH"/><use transform="matrix(0.06172839506172839,0,0,0.06172839506172839,15.987654320987653,0)" xlink:href="#bI"/><use transform="matrix(0.06172839506172839,0,0,0.06172839506172839,28.333333333333332,0)" xlink:href="#bJ"/><use transform="matrix(0.06172839506172839,0,0,0.06172839506172839,40.67901234567901,0)" xlink:href="#bu"/><use transform="matrix(0.06172839506172839,0,0,0.06172839506172839,53.02469135802469,0)" xlink:href="#bv"/><use transform="matrix(0.06172839506172839,0,0,0.06172839506172839,65.37037037037037,0)" xlink:href="#bK"/></g><g id="aj"><use transform="matrix(0.06172839506172839,0,0,0.06172839506172839,0,0)" xlink:href="#bt"/><use transform="matrix(0.06172839506172839,0,0,0.06172839506172839,6.172839506172839,0)" xlink:href="#br"/><use transform="matrix(0.06172839506172839,0,0,0.06172839506172839,11.049382716049383,0)" xlink:href="#bS"/><use transform="matrix(0.06172839506172839,0,0,0.06172839506172839,29.50617283950617,0)" xlink:href="#bK"/></g><path fill="#666" d="M33 0v-248h34V0H33" id="cr"/><g id="ak"><use transform="matrix(0.06172839506172839,0,0,0.06172839506172839,0,0)" xlink:href="#cr"/><use transform="matrix(0.06172839506172839,0,0,0.06172839506172839,6.172839506172839,0)" xlink:href="#bS"/><use transform="matrix(0.06172839506172839,0,0,0.06172839506172839,24.629629629629626,0)" xlink:href="#bM"/><use transform="matrix(0.06172839506172839,0,0,0.06172839506172839,36.9753086419753,0)" xlink:href="#bw"/><use transform="matrix(0.06172839506172839,0,0,0.06172839506172839,49.32098765432098,0)" xlink:href="#bN"/><use transform="matrix(0.06172839506172839,0,0,0.06172839506172839,56.66666666666666,0)" xlink:href="#bt"/></g><g id="al"><use transform="matrix(0.06172839506172839,0,0,0.06172839506172839,0,0)" xlink:href="#bJ"/><use transform="matrix(0.06172839506172839,0,0,0.06172839506172839,12.345679012345679,0)" xlink:href="#bu"/><use transform="matrix(0.06172839506172839,0,0,0.06172839506172839,24.691358024691358,0)" xlink:href="#bO"/></g><g id="am"><use transform="matrix(0.06172839506172839,0,0,0.06172839506172839,0,0)" xlink:href="#bK"/><use transform="matrix(0.06172839506172839,0,0,0.06172839506172839,12.345679012345679,0)" xlink:href="#bq"/><use transform="matrix(0.06172839506172839,0,0,0.06172839506172839,23.45679012345679,0)" xlink:href="#bM"/><use transform="matrix(0.06172839506172839,0,0,0.06172839506172839,35.80246913580247,0)" xlink:href="#bw"/><use transform="matrix(0.06172839506172839,0,0,0.06172839506172839,48.148148148148145,0)" xlink:href="#bN"/><use transform="matrix(0.06172839506172839,0,0,0.06172839506172839,55.49382716049382,0)" xlink:href="#bt"/></g><g id="an"><use transform="matrix(0.06172839506172839,0,0,0.06172839506172839,0,0)" xlink:href="#bJ"/><use transform="matrix(0.06172839506172839,0,0,0.06172839506172839,12.345679012345679,0)" xlink:href="#bS"/><use transform="matrix(0.06172839506172839,0,0,0.06172839506172839,30.80246913580247,0)" xlink:href="#bw"/><use transform="matrix(0.06172839506172839,0,0,0.06172839506172839,43.148148148148145,0)" xlink:href="#by"/><use transform="matrix(0.06172839506172839,0,0,0.06172839506172839,55.49382716049382,0)" xlink:href="#bu"/><use transform="matrix(0.06172839506172839,0,0,0.06172839506172839,67.8395061728395,0)" xlink:href="#bt"/><use transform="matrix(0.06172839506172839,0,0,0.06172839506172839,74.01234567901234,0)" xlink:href="#bs"/></g><g id="ao"><use transform="matrix(0.06172839506172839,0,0,0.06172839506172839,0,0)" xlink:href="#cq"/><use transform="matrix(0.06172839506172839,0,0,0.06172839506172839,8.641975308641975,0)" xlink:href="#bT"/><use transform="matrix(0.06172839506172839,0,0,0.06172839506172839,23.456790123456788,0)" xlink:href="#bN"/><use transform="matrix(0.06172839506172839,0,0,0.06172839506172839,30.80246913580247,0)" xlink:href="#bw"/><use transform="matrix(0.06172839506172839,0,0,0.06172839506172839,43.148148148148145,0)" xlink:href="#bO"/><use transform="matrix(0.06172839506172839,0,0,0.06172839506172839,55.49382716049382,0)" xlink:href="#by"/><use transform="matrix(0.06172839506172839,0,0,0.06172839506172839,67.8395061728395,0)" xlink:href="#bP"/><use transform="matrix(0.06172839506172839,0,0,0.06172839506172839,78.95061728395062,0)" xlink:href="#bt"/></g><g id="ap"><use transform="matrix(0.06172839506172839,0,0,0.06172839506172839,0,0)" xlink:href="#bQ"/><use transform="matrix(0.06172839506172839,0,0,0.06172839506172839,12.345679012345679,0)" xlink:href="#bJ"/><use transform="matrix(0.06172839506172839,0,0,0.06172839506172839,24.691358024691358,0)" xlink:href="#bs"/><use transform="matrix(0.06172839506172839,0,0,0.06172839506172839,35.80246913580247,0)" xlink:href="#bK"/><use transform="matrix(0.06172839506172839,0,0,0.06172839506172839,48.148148148148145,0)" xlink:href="#bO"/></g><g id="aq"><use transform="matrix(0.06172839506172839,0,0,0.06172839506172839,0,0)" xlink:href="#br"/><use transform="matrix(0.06172839506172839,0,0,0.06172839506172839,4.876543209876543,0)" xlink:href="#bS"/><use transform="matrix(0.06172839506172839,0,0,0.06172839506172839,23.33333333333333,0)" xlink:href="#bM"/><use transform="matrix(0.06172839506172839,0,0,0.06172839506172839,35.679012345679006,0)" xlink:href="#bw"/><use transform="matrix(0.06172839506172839,0,0,0.06172839506172839,48.02469135802468,0)" xlink:href="#bN"/><use transform="matrix(0.06172839506172839,0,0,0.06172839506172839,55.37037037037036,0)" xlink:href="#bt"/></g><g id="ar"><use transform="matrix(0.06172839506172839,0,0,0.06172839506172839,0,0)" xlink:href="#bO"/><use transform="matrix(0.06172839506172839,0,0,0.06172839506172839,12.345679012345679,0)" xlink:href="#bJ"/><use transform="matrix(0.06172839506172839,0,0,0.06172839506172839,24.691358024691358,0)" xlink:href="#bt"/><use transform="matrix(0.06172839506172839,0,0,0.06172839506172839,30.864197530864196,0)" xlink:href="#bJ"/></g></defs></g></svg>